<?xml version="1.0" encoding="utf-8"?>
<!-- Generator: Adobe Illustrator 22.1.0, SVG Export Plug-In . SVG Version: 6.00 Build 0)  -->
<svg version="1.1" id="Layer_1" xmlns="http://www.w3.org/2000/svg" xmlns:xlink="http://www.w3.org/1999/xlink" x="0px" y="0px"
	 viewBox="0 0 512 512" style="enable-background:new 0 0 512 512;" xml:space="preserve">
<g>
	<path d="M388.4,336.9c-35.4,8.4-43.9,29.1-94.4,43c0,0-2.4,3.6-9.4,5.3c-12.2,3-58,5.4-62.1,5.5c-11.2,0.1-18.1-2.9-20-7.4
		c-5.8-13.9,8.3-20,8.3-20c-7.3-4.5-8.2-9-8.9-7.3c-2.2,5.3-3.3,18.2-9.2,24c-8,8.1-23.1,5.4-32,0.7c-9.8-5.2,0.7-17.4,0.7-17.4
		s-5.3,3.1-9.5-3.3c-5.4-8.4-15.5-33.8,10.4-56.2c-1.2-9.2-4.2-48.7,36.8-77.7c0,0-18.7-20.7-11.7-39.3c4.5-12.2,6.4-12.1,7.8-12.6
		c5.2-2,10.3-4.2,14-8.3c18.7-20.1,42.5-16.3,42.5-16.3s11.2-34.3,21.7-27.6c3.2,2.1,14.8,27.8,14.8,27.8s12.3-7.2,13.7-4.5
		c7.4,14.5,8.3,42.2,5.1,59.1c-5.5,27.8-19.4,42.7-25,52.2c-1.3,2.2,15,9.1,25.2,37.5c9.4,25.9,1,47.8,2.5,50.2
		c0.7,1.3,12.4,0.7,33-12c11.6-7.2,25.5-15.3,41.2-15.4C399.1,316.3,399.9,334.2,388.4,336.9L388.4,336.9z M481,256
		c0,124.2-100.8,225-225,225S31,380.2,31,256S131.8,31,256,31S481,131.8,481,256z M409.1,324.2c-1.5-12.3-12-20.9-25.4-20.7
		c-20,0.3-36.7,10.6-47.9,17.4c-4.4,2.7-8.1,4.7-11.2,6.2c2.8-40.4-20.4-66.3-26-72c7.1-10.3,16.7-25.2,21.2-48.3
		c3.9-19.7,2.7-50.4-6.3-67.6c-1.5-2.8-6.7-10.2-19.1-6.7c-8.8-18.1-11.8-20.1-14.2-21.6c-1-0.6-21.4-14.9-37.6,25.4
		c-11.1,0.8-28.4,4.8-43.1,20.7c-1.8,2-5.4,3.4-9.2,4.9h0.1c-7.6,2.7-11.2,9-15.3,20.2c-5.9,15.8,0.2,31.4,6.2,41.5
		c-16.1,14.4-33.6,36.1-32.4,74.8c-30.8,32.7-10.7,66.2-5.1,72.2c-1.5,10.1,3.4,17.6,10.9,21.6c11.4,6.1,27.5,8.7,39.8,2.5
		c4.4,4.7,12.5,9.2,27.2,9.2c6.2,0,52.6-2.6,65.9-5.9c6.2-1.5,10.4-4.1,13.2-6.4c8.9-2.8,33.4-11.2,56.4-26
		c16.3-10.6,22-12.9,34.1-15.8C403.2,346.9,410.5,336.1,409.1,324.2L409.1,324.2z"/>
</g>
</svg>
